<svg width="24" height="24" viewBox="0 0 24 24" fill="none" xmlns="http://www.w3.org/2000/svg">
<rect width="24" height="24" fill="#1E1E1E"/>
<g id="Desktop">
<path d="M-4157 -2651C-4157 -2652.1 -4156.1 -2653 -4155 -2653H8541C8542.1 -2653 8543 -2652.1 8543 -2651V5199C8543 5200.1 8542.1 5201 8541 5201H-4155C-4156.1 5201 -4157 5200.1 -4157 5199V-2651Z" fill="#444444"/>
<path d="M-4155 -2653V-2652H8541V-2653V-2654H-4155V-2653ZM8543 -2651H8542V5199H8543H8544V-2651H8543ZM8541 5201V5200H-4155V5201V5202H8541V5201ZM-4157 5199H-4156V-2651H-4157H-4158V5199H-4157ZM-4155 5201V5200C-4155.55 5200 -4156 5199.55 -4156 5199H-4157H-4158C-4158 5200.66 -4156.66 5202 -4155 5202V5201ZM8543 5199H8542C8542 5199.55 8541.55 5200 8541 5200V5201V5202C8542.66 5202 8544 5200.66 8544 5199H8543ZM8541 -2653V-2652C8541.55 -2652 8542 -2651.55 8542 -2651H8543H8544C8544 -2652.66 8542.66 -2654 8541 -2654V-2653ZM-4155 -2653V-2654C-4156.66 -2654 -4158 -2652.66 -4158 -2651H-4157H-4156C-4156 -2651.55 -4155.55 -2652 -4155 -2652V-2653Z" fill="white" fill-opacity="0.1"/>
<g id="Packages" clip-path="url(#clip0_0_1)">
<rect width="1440" height="4730" transform="translate(-306 -1326)" fill="#F6EBC1"/>
<g id="Group 3258">
<g id="Rectangle 133" filter="url(#filter0_f_0_1)">
<rect x="-319" y="-67" width="1465" height="320" fill="url(#paint0_linear_0_1)"/>
</g>
<g id="Group 3238">
<g id="Group 33">
<g id="Group 32">
<g id="Rectangle 11" filter="url(#filter1_d_0_1)">
<rect x="-217" y="-235" width="405" height="399" rx="21" fill="white"/>
</g>
<g id="Group 3237">
<g id="Group 15">
<g id="pepicons-print:people">
<g id="Group">
<g id="Group_2" opacity="0.2">
<path id="Vector" d="M11.7 9.30007C11.7 10.2549 11.3207 11.1705 10.6456 11.8457C9.97045 12.5208 9.05478 12.9001 8.1 12.9001C7.14522 12.9001 6.22955 12.5208 5.55442 11.8457C4.87928 11.1705 4.5 10.2549 4.5 9.30007C4.5 8.34529 4.87928 7.42962 5.55442 6.75449C6.22955 6.07936 7.14522 5.70007 8.1 5.70007C9.05478 5.70007 9.97045 6.07936 10.6456 6.75449C11.3207 7.42962 11.7 8.34529 11.7 9.30007Z" fill="#545454"/>
<path id="Vector_2" fill-rule="evenodd" clip-rule="evenodd" d="M8.1 10.5001C8.41826 10.5001 8.72348 10.3736 8.94853 10.1486C9.17357 9.92356 9.3 9.61833 9.3 9.30007C9.3 8.98181 9.17357 8.67659 8.94853 8.45155C8.72348 8.2265 8.41826 8.10007 8.1 8.10007C7.78174 8.10007 7.47652 8.2265 7.25147 8.45155C7.02643 8.67659 6.9 8.98181 6.9 9.30007C6.9 9.61833 7.02643 9.92356 7.25147 10.1486C7.47652 10.3736 7.78174 10.5001 8.1 10.5001ZM8.1 12.9001C8.57276 12.9001 9.04089 12.807 9.47766 12.626C9.91443 12.4451 10.3113 12.1799 10.6456 11.8457C10.9799 11.5114 11.245 11.1145 11.426 10.6777C11.6069 10.241 11.7 9.77283 11.7 9.30007C11.7 8.82731 11.6069 8.35919 11.426 7.92241C11.245 7.48564 10.9799 7.08878 10.6456 6.75449C10.3113 6.4202 9.91443 6.15502 9.47766 5.97411C9.04089 5.79319 8.57276 5.70007 8.1 5.70007C7.14522 5.70007 6.22955 6.07936 5.55442 6.75449C4.87928 7.42962 4.5 8.34529 4.5 9.30007C4.5 10.2549 4.87928 11.1705 5.55442 11.8457C6.22955 12.5208 7.14522 12.9001 8.1 12.9001Z" fill="#545454"/>
<path id="Vector_3" fill-rule="evenodd" clip-rule="evenodd" d="M8.15996 13.8C7.68257 13.8 7.22473 13.9897 6.88717 14.3272C6.5496 14.6648 6.35996 15.1226 6.35996 15.6V17.4C6.35996 17.7183 6.23353 18.0235 6.00849 18.2486C5.78345 18.4736 5.47822 18.6 5.15996 18.6C4.8417 18.6 4.53648 18.4736 4.31143 18.2486C4.08639 18.0235 3.95996 17.7183 3.95996 17.4V15.6C3.95996 14.4861 4.40246 13.4178 5.19011 12.6302C5.97777 11.8425 7.04605 11.4 8.15996 11.4C9.27387 11.4 10.3422 11.8425 11.1298 12.6302C11.9175 13.4178 12.36 14.4861 12.36 15.6V16.2C12.36 16.5183 12.2335 16.8235 12.0085 17.0486C11.7834 17.2736 11.4782 17.4 11.16 17.4C10.8417 17.4 10.5365 17.2736 10.3114 17.0486C10.0864 16.8235 9.95996 16.5183 9.95996 16.2V15.6C9.95996 15.1226 9.77032 14.6648 9.43275 14.3272C9.09519 13.9897 8.63735 13.8 8.15996 13.8Z" fill="#545454"/>
<path id="Vector_4" d="M15.2998 9.30007C15.2998 10.2549 15.6791 11.1705 16.3542 11.8457C17.0294 12.5208 17.945 12.9001 18.8998 12.9001C19.8546 12.9001 20.7703 12.5208 21.4454 11.8457C22.1205 11.1705 22.4998 10.2549 22.4998 9.30007C22.4998 8.34529 22.1205 7.42962 21.4454 6.75449C20.7703 6.07936 19.8546 5.70007 18.8998 5.70007C17.945 5.70007 17.0294 6.07936 16.3542 6.75449C15.6791 7.42962 15.2998 8.34529 15.2998 9.30007Z" fill="#545454"/>
<path id="Vector_5" fill-rule="evenodd" clip-rule="evenodd" d="M18.8998 10.5001C18.5815 10.5001 18.2763 10.3736 18.0513 10.1486C17.8262 9.92356 17.6998 9.61833 17.6998 9.30007C17.6998 8.98181 17.8262 8.67659 18.0513 8.45155C18.2763 8.2265 18.5815 8.10007 18.8998 8.10007C19.2181 8.10007 19.5233 8.2265 19.7483 8.45155C19.9734 8.67659 20.0998 8.98181 20.0998 9.30007C20.0998 9.61833 19.9734 9.92356 19.7483 10.1486C19.5233 10.3736 19.2181 10.5001 18.8998 10.5001ZM18.8998 12.9001C18.427 12.9001 17.9589 12.807 17.5221 12.626C17.0854 12.4451 16.6885 12.1799 16.3542 11.8457C16.0199 11.5114 15.7548 11.1145 15.5738 10.6777C15.3929 10.241 15.2998 9.77283 15.2998 9.30007C15.2998 8.82731 15.3929 8.35919 15.5738 7.92241C15.7548 7.48564 16.0199 7.08878 16.3542 6.75449C16.6885 6.4202 17.0854 6.15502 17.5221 5.97411C17.9589 5.79319 18.427 5.70007 18.8998 5.70007C19.8546 5.70007 20.7703 6.07936 21.4454 6.75449C22.1205 7.42962 22.4998 8.34529 22.4998 9.30007C22.4998 10.2549 22.1205 11.1705 21.4454 11.8457C20.7703 12.5208 19.8546 12.9001 18.8998 12.9001Z" fill="#545454"/>
<path id="Vector_6" fill-rule="evenodd" clip-rule="evenodd" d="M18.8396 13.8C19.317 13.8 19.7749 13.9897 20.1124 14.3272C20.45 14.6648 20.6396 15.1226 20.6396 15.6V17.4C20.6396 17.7183 20.7661 18.0235 20.9911 18.2486C21.2162 18.4736 21.5214 18.6 21.8396 18.6C22.1579 18.6 22.4631 18.4736 22.6882 18.2486C22.9132 18.0235 23.0396 17.7183 23.0396 17.4V15.6C23.0396 14.4861 22.5971 13.4178 21.8095 12.6302C21.0218 11.8425 19.9536 11.4 18.8396 11.4C17.7257 11.4 16.6575 11.8425 15.8698 12.6302C15.0821 13.4178 14.6396 14.4861 14.6396 15.6V16.2C14.6396 16.5183 14.7661 16.8235 14.9911 17.0486C15.2162 17.2736 15.5214 17.4 15.8396 17.4C16.1579 17.4 16.4631 17.2736 16.6882 17.0486C16.9132 16.8235 17.0396 16.5183 17.0396 16.2V15.6C17.0396 15.1226 17.2293 14.6648 17.5669 14.3272C17.9044 13.9897 18.3623 13.8 18.8396 13.8Z" fill="#545454"/>
<path id="Vector_7" fill-rule="evenodd" clip-rule="evenodd" d="M13.5604 17.1001C13.083 17.1001 12.6251 17.2897 12.2876 17.6273C11.95 17.9648 11.7604 18.4227 11.7604 18.9001V20.7001C11.7604 21.0183 11.6339 21.3236 11.4089 21.5486C11.1838 21.7736 10.8786 21.9001 10.5604 21.9001C10.2421 21.9001 9.93687 21.7736 9.71182 21.5486C9.48678 21.3236 9.36035 21.0183 9.36035 20.7001V18.9001C9.36035 17.7862 9.80285 16.7179 10.5905 15.9302C11.3782 15.1426 12.4464 14.7001 13.5604 14.7001C14.6743 14.7001 15.7425 15.1426 16.5302 15.9302C17.3179 16.7179 17.7604 17.7862 17.7604 18.9001V20.7001C17.7604 21.0183 17.6339 21.3236 17.4089 21.5486C17.1838 21.7736 16.8786 21.9001 16.5604 21.9001C16.2421 21.9001 15.9369 21.7736 15.7118 21.5486C15.4868 21.3236 15.3604 21.0183 15.3604 20.7001V18.9001C15.3604 18.4227 15.1707 17.9648 14.8331 17.6273C14.4956 17.2897 14.0377 17.1001 13.5604 17.1001Z" fill="#545454"/>
<path id="Vector_8" d="M17.1004 12.6001C17.1004 13.5549 16.7211 14.4706 16.046 15.1457C15.3708 15.8208 14.4552 16.2001 13.5004 16.2001C12.5456 16.2001 11.6299 15.8208 10.9548 15.1457C10.2797 14.4706 9.90039 13.5549 9.90039 12.6001C9.90039 11.6453 10.2797 10.7297 10.9548 10.0545C11.6299 9.37941 12.5456 9.00012 13.5004 9.00012C14.4552 9.00012 15.3708 9.37941 16.046 10.0545C16.7211 10.7297 17.1004 11.6453 17.1004 12.6001Z" fill="#545454"/>
<path id="Vector_9" fill-rule="evenodd" clip-rule="evenodd" d="M13.5004 13.8001C13.8187 13.8001 14.1239 13.6737 14.3489 13.4487C14.574 13.2236 14.7004 12.9184 14.7004 12.6001C14.7004 12.2819 14.574 11.9766 14.3489 11.7516C14.1239 11.5266 13.8187 11.4001 13.5004 11.4001C13.1821 11.4001 12.8769 11.5266 12.6519 11.7516C12.4268 11.9766 12.3004 12.2819 12.3004 12.6001C12.3004 12.9184 12.4268 13.2236 12.6519 13.4487C12.8769 13.6737 13.1821 13.8001 13.5004 13.8001ZM13.5004 16.2001C14.4552 16.2001 15.3708 15.8208 16.046 15.1457C16.7211 14.4706 17.1004 13.5549 17.1004 12.6001C17.1004 11.6453 16.7211 10.7297 16.046 10.0545C15.3708 9.37941 14.4552 9.00012 13.5004 9.00012C12.5456 9.00012 11.6299 9.37941 10.9548 10.0545C10.2797 10.7297 9.90039 11.6453 9.90039 12.6001C9.90039 13.5549 10.2797 14.4706 10.9548 15.1457C11.6299 15.8208 12.5456 16.2001 13.5004 16.2001Z" fill="#545454"/>
<path id="Vector_10" d="M5.09961 13.8H11.0996V18.6H5.09961V13.8ZM15.8996 13.8H21.8996V18.6H15.8996V13.8Z" fill="#545454"/>
<path id="Vector_11" d="M11.1 16.2001H15.9L16.5 21.9001H10.5L11.1 16.2001Z" fill="#545454"/>
</g>
<path id="Vector_12" fill-rule="evenodd" clip-rule="evenodd" d="M5.99941 10.8C6.63593 10.8 7.24638 10.5472 7.69647 10.0971C8.14656 9.64702 8.39941 9.03657 8.39941 8.40005C8.39941 7.76353 8.14656 7.15308 7.69647 6.70299C7.24638 6.25291 6.63593 6.00005 5.99941 6.00005C5.36289 6.00005 4.75244 6.25291 4.30236 6.70299C3.85227 7.15308 3.59941 7.76353 3.59941 8.40005C3.59941 9.03657 3.85227 9.64702 4.30236 10.0971C4.75244 10.5472 5.36289 10.8 5.99941 10.8ZM5.99941 12C6.47217 12 6.9403 11.9069 7.37707 11.726C7.81385 11.5451 8.21071 11.2799 8.545 10.9456C8.87929 10.6113 9.14446 10.2145 9.32538 9.77771C9.5063 9.34094 9.59941 8.87281 9.59941 8.40005C9.59941 7.92729 9.5063 7.45916 9.32538 7.02239C9.14446 6.58562 8.87929 6.18876 8.545 5.85446C8.21071 5.52017 7.81385 5.255 7.37707 5.07408C6.9403 4.89317 6.47217 4.80005 5.99941 4.80005C5.04463 4.80005 4.12896 5.17933 3.45383 5.85446C2.7787 6.5296 2.39941 7.44527 2.39941 8.40005C2.39941 9.35483 2.7787 10.2705 3.45383 10.9456C4.12896 11.6208 5.04463 12 5.99941 12Z" fill="#545454"/>
<path id="Vector_13" fill-rule="evenodd" clip-rule="evenodd" d="M4.6246 10.6752C4.68048 10.7309 4.72481 10.7971 4.75506 10.87C4.78531 10.9429 4.80088 11.0211 4.80088 11.1C4.80088 11.1789 4.78531 11.2571 4.75506 11.3299C4.72481 11.4028 4.68048 11.4691 4.6246 11.5248L4.219 11.9292C3.43845 12.71 2.99991 13.7688 2.9998 14.8728V17.1C2.9998 17.2591 2.93659 17.4117 2.82407 17.5243C2.71155 17.6368 2.55893 17.7 2.3998 17.7C2.24067 17.7 2.08806 17.6368 1.97554 17.5243C1.86302 17.4117 1.7998 17.2591 1.7998 17.1V14.8728C1.79997 13.4505 2.36499 12.0866 3.3706 11.0808L3.775 10.6752C3.83074 10.6193 3.89695 10.575 3.96984 10.5447C4.04274 10.5145 4.12088 10.4989 4.1998 10.4989C4.27873 10.4989 4.35687 10.5145 4.42977 10.5447C4.50266 10.575 4.56887 10.6193 4.6246 10.6752ZM18.775 10.3152C18.7191 10.3709 18.6748 10.4371 18.6446 10.51C18.6143 10.5829 18.5987 10.6611 18.5987 10.74C18.5987 10.8189 18.6143 10.8971 18.6446 10.9699C18.6748 11.0428 18.7191 11.1091 18.775 11.1648L19.1806 11.5692C19.9612 12.35 20.3997 13.4088 20.3998 14.5128V17.1C20.3998 17.2591 20.463 17.4117 20.5755 17.5243C20.6881 17.6368 20.8407 17.7 20.9998 17.7C21.1589 17.7 21.3115 17.6368 21.4241 17.5243C21.5366 17.4117 21.5998 17.2591 21.5998 17.1V14.5128C21.5996 13.0905 21.0346 11.7266 20.029 10.7208L19.6246 10.3152C19.5689 10.2593 19.5027 10.215 19.4298 10.1847C19.3569 10.1545 19.2787 10.1389 19.1998 10.1389C19.1209 10.1389 19.0427 10.1545 18.9698 10.1847C18.897 10.215 18.8307 10.2593 18.775 10.3152Z" fill="#545454"/>
<path id="Vector_14" fill-rule="evenodd" clip-rule="evenodd" d="M16.8002 10.8C16.1637 10.8 15.5532 10.5472 15.1031 10.0971C14.6531 9.64702 14.4002 9.03657 14.4002 8.40005C14.4002 7.76353 14.6531 7.15308 15.1031 6.70299C15.5532 6.25291 16.1637 6.00005 16.8002 6.00005C17.4367 6.00005 18.0472 6.25291 18.4973 6.70299C18.9473 7.15308 19.2002 7.76353 19.2002 8.40005C19.2002 9.03657 18.9473 9.64702 18.4973 10.0971C18.0472 10.5472 17.4367 10.8 16.8002 10.8ZM16.8002 12C16.3274 12 15.8593 11.9069 15.4225 11.726C14.9858 11.5451 14.5889 11.2799 14.2546 10.9456C13.9203 10.6113 13.6551 10.2145 13.4742 9.77771C13.2933 9.34094 13.2002 8.87281 13.2002 8.40005C13.2002 7.92729 13.2933 7.45916 13.4742 7.02239C13.6551 6.58562 13.9203 6.18876 14.2546 5.85446C14.5889 5.52017 14.9858 5.255 15.4225 5.07408C15.8593 4.89317 16.3274 4.80005 16.8002 4.80005C17.755 4.80005 18.6706 5.17933 19.3458 5.85446C20.0209 6.5296 20.4002 7.44527 20.4002 8.40005C20.4002 9.35483 20.0209 10.2705 19.3458 10.9456C18.6706 11.6208 17.755 12 16.8002 12ZM11.4002 15.9C10.6045 15.9 9.84148 16.2161 9.27888 16.7787C8.71627 17.3413 8.4002 18.1044 8.4002 18.9V20.46C8.4002 20.6192 8.33698 20.7718 8.22446 20.8843C8.11194 20.9968 7.95933 21.06 7.8002 21.06C7.64107 21.06 7.48845 20.9968 7.37593 20.8843C7.26341 20.7718 7.2002 20.6192 7.2002 20.46V18.9C7.2002 17.7861 7.64269 16.7179 8.43035 15.9302C9.218 15.1425 10.2863 14.7 11.4002 14.7C12.5141 14.7 13.5824 15.1425 14.37 15.9302C15.1577 16.7179 15.6002 17.7861 15.6002 18.9V20.46C15.6002 20.6192 15.537 20.7718 15.4245 20.8843C15.3119 20.9968 15.1593 21.06 15.0002 21.06C14.8411 21.06 14.6885 20.9968 14.5759 20.8843C14.4634 20.7718 14.4002 20.6192 14.4002 20.46V18.9C14.4002 18.5061 14.3226 18.116 14.1718 17.752C14.0211 17.388 13.8001 17.0573 13.5215 16.7787C13.2429 16.5002 12.9122 16.2792 12.5482 16.1284C12.1843 15.9776 11.7942 15.9 11.4002 15.9Z" fill="#545454"/>
<path id="Vector_15" fill-rule="evenodd" clip-rule="evenodd" d="M11.3998 14.1001C12.0363 14.1001 12.6468 13.8472 13.0969 13.3972C13.5469 12.9471 13.7998 12.3366 13.7998 11.7001C13.7998 11.0636 13.5469 10.4531 13.0969 10.003C12.6468 9.55295 12.0363 9.3001 11.3998 9.3001C10.7633 9.3001 10.1528 9.55295 9.70275 10.003C9.25266 10.4531 8.9998 11.0636 8.9998 11.7001C8.9998 12.3366 9.25266 12.9471 9.70275 13.3972C10.1528 13.8472 10.7633 14.1001 11.3998 14.1001ZM11.3998 15.3001C12.3546 15.3001 13.2703 14.9208 13.9454 14.2457C14.6205 13.5706 14.9998 12.6549 14.9998 11.7001C14.9998 10.7453 14.6205 9.82964 13.9454 9.15451C13.2703 8.47938 12.3546 8.1001 11.3998 8.1001C10.445 8.1001 9.52935 8.47938 8.85422 9.15451C8.17909 9.82964 7.7998 10.7453 7.7998 11.7001C7.7998 12.6549 8.17909 13.5706 8.85422 14.2457C9.52935 14.9208 10.445 15.3001 11.3998 15.3001Z" fill="#545454"/>
</g>
</g>
</g>
</g>
</g>
</g>
</g>
</g>
</g>
</g>
<defs>
<filter id="filter0_f_0_1" x="-343.4" y="-91.4" width="1513.8" height="368.8" filterUnits="userSpaceOnUse" color-interpolation-filters="sRGB">
<feFlood flood-opacity="0" result="BackgroundImageFix"/>
<feBlend mode="normal" in="SourceGraphic" in2="BackgroundImageFix" result="shape"/>
<feGaussianBlur stdDeviation="12.2" result="effect1_foregroundBlur_0_1"/>
</filter>
<filter id="filter1_d_0_1" x="-248.8" y="-262.8" width="468.6" height="462.6" filterUnits="userSpaceOnUse" color-interpolation-filters="sRGB">
<feFlood flood-opacity="0" result="BackgroundImageFix"/>
<feColorMatrix in="SourceAlpha" type="matrix" values="0 0 0 0 0 0 0 0 0 0 0 0 0 0 0 0 0 0 127 0" result="hardAlpha"/>
<feOffset dy="4"/>
<feGaussianBlur stdDeviation="15.9"/>
<feComposite in2="hardAlpha" operator="out"/>
<feColorMatrix type="matrix" values="0 0 0 0 0 0 0 0 0 0 0 0 0 0 0 0 0 0 0.18 0"/>
<feBlend mode="normal" in2="BackgroundImageFix" result="effect1_dropShadow_0_1"/>
<feBlend mode="normal" in="SourceGraphic" in2="effect1_dropShadow_0_1" result="shape"/>
</filter>
<linearGradient id="paint0_linear_0_1" x1="414.009" y1="442.341" x2="413.596" y2="-67.0001" gradientUnits="userSpaceOnUse">
<stop offset="0.346154" stop-color="#F6EBC1"/>
<stop offset="1" stop-color="#C95D2F" stop-opacity="0.5"/>
</linearGradient>
<clipPath id="clip0_0_1">
<rect width="1440" height="4730" fill="white" transform="translate(-306 -1326)"/>
</clipPath>
</defs>
</svg>
