<svg width="104" height="104" viewBox="0 0 104 104" fill="none" xmlns="http://www.w3.org/2000/svg">
<path d="M71.5 19C81.54 19 89.3338 26.764 89.334 36.833C89.334 43.0288 86.593 49.1408 80.5322 56.5557C74.4055 64.0512 65.5292 72.1263 54.2529 82.3516L54.2441 82.3594L52 84.4023L49.7559 82.3594L49.7471 82.3516C38.471 72.1265 29.5954 64.0511 23.4688 56.5557C17.408 49.1408 14.667 43.0288 14.667 36.833C14.6672 26.7641 22.4602 19.0002 32.5 19C38.2261 19 43.8217 21.6967 47.4473 25.9209L52 31.2256L56.5537 25.9209C60.1792 21.6968 65.7741 19.0001 71.5 19Z" stroke="black" stroke-width="12"/>
</svg>
